<?xml version="1.0" standalone="no"?>
<!DOCTYPE svg PUBLIC "-//W3C//DTD SVG 20010904//EN"
 "http://www.w3.org/TR/2001/REC-SVG-20010904/DTD/svg10.dtd">
<svg version="1.0" xmlns="http://www.w3.org/2000/svg"
 width="512.000000pt" height="512.000000pt" viewBox="0 0 512.000000 512.000000"
 preserveAspectRatio="xMidYMid meet">
<metadata>
Created by potrace 1.14, written by Peter Selinger 2001-2017
</metadata>
<g transform="translate(0.000000,512.000000) scale(0.100000,-0.100000)"
fill="#000000" stroke="none">
<path d="M934 3715 c-23 -8 -84 -32 -135 -54 -91 -38 -95 -39 -114 -21 -58 51
-121 54 -207 8 -148 -79 -209 -238 -144 -373 25 -50 70 -99 112 -123 14 -8 17
-21 15 -63 -2 -71 22 -159 65 -237 29 -51 33 -66 24 -77 -10 -12 -9 -20 5 -41
15 -24 18 -24 34 -10 24 22 36 21 127 -18 97 -41 135 -50 174 -41 42 9 31 19
-37 34 -85 19 -195 74 -233 118 -78 89 -122 252 -86 322 9 17 28 37 41 43 40
18 29 23 -40 20 -65 -4 -66 -3 -104 35 -46 46 -76 131 -65 187 14 80 101 172
184 197 54 16 93 -7 127 -76 15 -30 30 -52 34 -50 3 3 9 18 12 35 5 25 18 35
84 69 89 44 171 71 220 71 28 0 37 -7 65 -50 45 -67 67 -67 32 1 -15 30 -15
31 8 24 133 -42 310 -282 364 -495 16 -63 15 -193 -1 -220 -4 -6 -20 5 -39 25
-18 19 -39 35 -46 35 -10 0 -9 5 3 18 16 18 38 117 30 138 -3 7 -14 16 -25 20
-33 10 -51 -19 -56 -86 -4 -52 -7 -60 -21 -54 -43 18 -118 16 -159 -5 -69 -35
-76 -31 -68 39 8 69 -4 100 -37 100 -38 0 -47 -19 -47 -102 l0 -78 -37 -24
c-61 -38 -78 -63 -77 -110 1 -53 32 -113 83 -159 51 -46 82 -62 154 -77 50
-12 57 -16 57 -37 0 -32 24 -25 28 8 2 19 12 29 40 38 20 8 60 31 89 52 29 22
57 39 62 39 5 0 11 12 13 28 4 27 4 27 23 -12 l20 -39 6 44 c4 24 19 73 34
108 47 110 53 244 16 367 -8 29 -6 35 35 75 25 24 57 69 72 99 81 164 -29 349
-207 350 -63 0 -134 -29 -157 -65 l-15 -24 -91 45 c-102 49 -165 56 -244 29z
m605 -72 c63 -47 91 -127 71 -201 -12 -48 -68 -125 -93 -130 -29 -6 -31 26 -4
58 50 58 59 140 22 196 -8 13 -25 24 -36 24 -24 0 -76 -25 -105 -51 -20 -19
-21 -19 -52 21 l-32 39 27 31 c46 51 142 57 202 13z m-19 -102 c23 -44 5 -128
-33 -160 -13 -10 -21 -2 -51 47 -20 33 -36 64 -36 70 0 18 61 62 85 62 14 0
29 -9 35 -19z m-351 -570 c10 -6 39 -35 64 -65 53 -61 53 -80 3 -102 -17 -7
-23 -13 -14 -14 9 0 30 11 47 25 l30 26 21 -21 c11 -11 25 -20 31 -20 5 0 -1
10 -16 23 l-25 22 40 63 c42 66 45 67 87 29 33 -30 38 -70 14 -120 -29 -60
-96 -134 -142 -158 -83 -42 -192 -33 -269 22 -45 33 -100 121 -100 161 0 44
46 85 125 112 83 29 81 29 104 17z"/>
<path d="M515 3516 c-49 -21 -85 -71 -85 -118 0 -32 7 -47 34 -74 47 -47 89
-47 112 -1 9 17 31 46 50 64 38 36 45 82 18 121 -18 26 -79 30 -129 8z m113
-53 c2 -24 -3 -37 -23 -55 -14 -12 -35 -37 -46 -55 -36 -57 -99 -33 -99 36 1
73 45 112 120 108 43 -2 45 -4 48 -34z"/>
<path d="M1155 3480 c-6 -9 19 -117 29 -128 15 -15 18 13 6 68 -13 61 -23 79
-35 60z"/>
<path d="M3262 3070 c-18 -4 -44 -18 -57 -30 -40 -38 -47 -88 -43 -330 3 -202
5 -228 22 -257 24 -39 63 -56 122 -55 50 0 85 19 111 59 16 24 18 55 18 278 0
223 -2 254 -18 278 -33 51 -92 72 -155 57z m85 -74 l28 -24 0 -235 c0 -235 0
-235 -24 -261 -31 -33 -65 -33 -96 -1 l-25 24 0 236 0 236 25 24 c30 31 56 32
92 1z"/>
<path d="M4905 3073 c-52 -13 -85 -73 -85 -158 0 -79 17 -112 95 -180 37 -32
74 -74 81 -92 22 -51 18 -135 -7 -167 -46 -58 -119 -15 -119 70 0 42 -1 44
-30 44 -30 0 -30 -1 -30 -52 0 -94 43 -140 129 -140 95 0 131 48 131 177 0 98
-20 137 -103 204 -75 59 -91 91 -85 163 11 109 118 105 118 -4 0 -36 2 -38 30
-38 29 0 30 1 30 48 0 64 -28 108 -77 121 -40 11 -46 12 -78 4z"/>
<path d="M1755 3048 c-6 -29 -105 -627 -105 -639 0 -5 15 -9 33 -9 l34 0 12
88 c21 141 15 132 77 132 60 0 52 15 77 -140 12 -74 13 -75 45 -78 27 -3 32 0
32 19 0 20 -93 571 -105 627 -5 19 -12 22 -50 22 -38 0 -45 -3 -50 -22z m89
-320 l7 -48 -47 0 -46 0 5 33 c3 17 14 84 23 147 l18 115 17 -100 c9 -55 19
-121 23 -147z"/>
<path d="M2020 2735 l0 -335 35 0 35 0 0 335 0 335 -35 0 -35 0 0 -335z"/>
<path d="M2190 2735 l0 -337 89 4 c96 4 127 17 158 65 16 23 18 57 21 252 5
321 -6 342 -175 349 l-93 4 0 -337z m182 245 c16 -20 18 -44 18 -236 0 -135
-4 -222 -11 -237 -14 -30 -48 -47 -94 -47 l-35 0 0 276 0 277 52 -5 c38 -4 57
-12 70 -28z"/>
<path d="M2680 2735 l0 -335 35 0 35 0 0 150 0 150 40 0 c110 0 155 63 148
207 -7 130 -42 161 -185 162 l-73 1 0 -335z m160 265 c41 -22 50 -162 14 -217
-11 -18 -24 -23 -59 -23 l-45 0 0 125 0 125 36 0 c19 0 44 -5 54 -10z"/>
<path d="M3010 2735 l0 -335 30 0 30 0 0 335 0 335 -30 0 -30 0 0 -335z"/>
<path d="M3530 2736 l0 -336 31 0 31 0 -4 269 c-2 149 -3 269 -2 268 1 -1 32
-114 69 -252 37 -137 70 -258 72 -268 4 -14 14 -17 42 -15 l36 3 0 330 0 330
-30 0 -30 0 2 -260 c1 -179 -1 -251 -8 -230 -5 17 -38 134 -72 260 l-62 230
-37 3 -38 3 0 -335z"/>
<path d="M3910 2735 l0 -335 110 0 c88 0 110 3 110 14 0 8 3 21 6 30 5 14 -6
16 -80 16 l-86 0 0 135 0 135 75 0 75 0 0 30 0 30 -75 0 -75 0 0 110 0 110 80
0 80 0 0 30 0 30 -110 0 -110 0 0 -335z"/>
<path d="M4200 2735 l0 -335 110 0 c88 0 110 3 110 14 0 8 3 21 6 30 5 14 -6
16 -80 16 l-86 0 0 135 0 135 75 0 75 0 0 30 0 30 -75 0 -75 0 0 110 0 110 80
0 80 0 0 30 0 30 -110 0 -110 0 0 -335z"/>
<path d="M4490 2735 l0 -335 30 0 30 0 0 161 0 162 48 -7 c26 -3 52 -14 60
-23 7 -10 12 -48 12 -93 0 -43 3 -105 6 -139 7 -59 8 -61 35 -61 l29 0 0 113
c0 141 -7 182 -35 209 l-21 21 22 22 c28 28 37 75 32 165 -3 56 -8 74 -28 95
-29 31 -77 45 -157 45 l-63 0 0 -335z m166 254 c15 -17 19 -37 19 -101 0 -72
-2 -82 -24 -99 -14 -11 -39 -19 -62 -19 l-39 0 0 120 0 120 43 0 c32 0 49 -6
63 -21z"/>
<path d="M478 2683 c-28 -33 -66 -107 -87 -170 -23 -69 -28 -174 -10 -236 10
-36 7 -45 -31 -117 -106 -204 -93 -343 36 -406 47 -23 62 -26 110 -20 30 3 59
7 63 9 5 1 70 -81 146 -183 159 -212 209 -265 326 -337 142 -88 241 -101 343
-45 105 58 165 215 166 435 0 44 4 67 12 67 53 0 153 -27 206 -57 76 -42 116
-44 180 -11 63 33 116 105 149 203 23 68 27 98 27 200 1 93 -3 132 -18 174
-26 75 -76 127 -139 146 -72 21 -107 19 -169 -13 l-54 -27 -27 37 c-14 20 -41
45 -59 54 -18 9 -45 27 -59 41 l-26 24 -8 -63 c-4 -35 -6 -81 -4 -103 2 -22 3
-86 2 -143 -3 -119 -24 -180 -88 -250 l-37 -41 -61 6 c-34 3 -63 10 -65 15 -6
13 -29 10 -35 -5 -3 -7 -25 -19 -48 -26 -24 -7 -68 -28 -97 -48 l-53 -36 -121
26 c-67 15 -124 24 -127 21 -3 -3 9 -19 27 -34 30 -25 89 -48 163 -64 l26 -6
-20 -57 c-15 -47 -18 -76 -14 -148 2 -49 10 -111 17 -138 11 -42 15 -47 34
-41 11 4 23 8 24 9 2 2 -4 47 -13 101 -26 151 -6 235 73 304 25 22 47 38 49
36 2 -2 -8 -30 -22 -62 -46 -103 -65 -191 -65 -294 0 -52 4 -110 9 -128 5 -17
7 -32 4 -32 -22 0 -131 71 -173 113 -50 50 -305 381 -316 411 -3 8 13 37 38
68 24 29 55 78 68 108 23 52 25 67 28 250 2 179 -4 237 -24 218 -11 -11 -34
-207 -34 -294 0 -44 -7 -104 -15 -132 -17 -58 -82 -144 -135 -179 -67 -46
-159 -20 -203 55 -18 30 -18 39 -7 95 15 81 35 124 131 288 53 91 83 152 86
180 5 34 3 41 -8 34 -33 -19 -51 -42 -76 -97 -14 -32 -30 -58 -36 -58 -6 0 -8
32 -5 83 5 90 35 170 98 262 l31 45 -34 0 c-20 0 -40 -7 -49 -17z m1197 -409
c17 -36 17 -37 -21 -143 -21 -58 -39 -99 -41 -91 -1 8 -4 79 -6 157 l-3 142
26 -14 c15 -8 35 -31 45 -51z m318 -30 c51 -52 62 -91 62 -224 0 -151 -27
-239 -94 -312 -39 -42 -53 -51 -91 -55 -39 -4 -49 -2 -72 22 -54 53 -61 217
-18 403 23 96 37 127 77 163 53 50 88 51 136 3z m-238 -62 c-38 -93 -55 -199
-55 -338 l0 -126 -42 5 c-24 3 -65 9 -93 12 -46 6 -51 9 -69 47 l-18 40 29 31
c16 18 41 51 56 75 26 40 29 42 65 36 l38 -6 13 63 c18 91 40 149 68 187 13
17 26 32 28 32 2 0 -7 -26 -20 -58z m-329 -397 c53 -36 66 -242 25 -374 -20
-65 -31 -83 -84 -136 -67 -67 -104 -83 -148 -65 -63 26 -84 160 -51 321 18 88
54 182 85 219 38 49 128 67 173 35z"/>
<path d="M1297 2473 c-8 -16 38 -278 48 -273 11 6 12 28 3 83 -5 27 -3 37 6
37 29 0 49 38 44 85 -3 25 -11 52 -18 60 -13 15 -76 21 -83 8z m71 -67 c3 -37
-10 -67 -24 -53 -4 4 -10 27 -14 52 -6 43 -6 46 14 43 17 -2 22 -11 24 -42z"/>
<path d="M1200 2320 c0 -118 2 -140 15 -140 11 0 15 12 15 44 0 29 5 46 15 49
17 7 18 5 34 -45 7 -21 19 -38 26 -38 8 0 13 6 10 13 -4 12 -62 206 -71 240
-3 9 -14 17 -25 17 -18 0 -19 -8 -19 -140z m49 3 c1 -13 -3 -23 -9 -23 -5 0
-10 19 -9 43 0 32 2 37 9 22 5 -11 9 -30 9 -42z"/>
</g>
</svg>
