<svg width="31" height="40" viewBox="0 0 31 40" fill="none" xmlns="http://www.w3.org/2000/svg">
<path d="M30.0778 15.0389C30.0778 21.8848 20.9135 34.0726 16.8953 39.1012C15.9319 40.2996 14.146 40.2996 13.1826 39.1012C9.09385 34.0726 0 21.8848 0 15.0389C0 6.73305 6.73305 0 15.0389 0C23.3417 0 30.0778 6.73305 30.0778 15.0389Z" fill="#EBFFF4"/>
<path d="M20.4543 11.2588C20.5346 11.1768 20.6305 11.1118 20.7362 11.0673C20.842 11.0229 20.9555 11 21.0702 11C21.185 11 21.2985 11.0229 21.4043 11.0673C21.51 11.1118 21.6059 11.1768 21.6862 11.2588C22.0227 11.5988 22.0274 12.1482 21.6979 12.4941L14.741 20.7183C14.662 20.805 14.5661 20.8747 14.4593 20.9231C14.3524 20.9715 14.2368 20.9976 14.1195 20.9998C14.0022 21.0021 13.8857 20.9803 13.7771 20.9359C13.6685 20.8916 13.5701 20.8255 13.488 20.7418L9.25471 16.4521C9.09145 16.2856 9 16.0617 9 15.8285C9 15.5953 9.09145 15.3714 9.25471 15.2049C9.33501 15.123 9.43084 15.0579 9.5366 15.0135C9.64236 14.969 9.75593 14.9462 9.87064 14.9462C9.98535 14.9462 10.0989 14.969 10.2047 15.0135C10.3104 15.0579 10.4063 15.123 10.4866 15.2049L14.0774 18.844L20.4308 11.2846C20.4381 11.2756 20.446 11.2669 20.4543 11.2588Z" fill="#00AF54"/>
</svg>
