<svg width="31" height="40" viewBox="0 0 31 40" fill="none" xmlns="http://www.w3.org/2000/svg">
<path d="M30.0778 15.0389C30.0778 21.8848 20.9135 34.0726 16.8953 39.1012C15.9319 40.2996 14.146 40.2996 13.1826 39.1012C9.09385 34.0726 0 21.8848 0 15.0389C0 6.73305 6.73305 0 15.0389 0C23.3417 0 30.0778 6.73305 30.0778 15.0389Z" fill="white"/>
<path d="M15.2352 7.75139C15.1103 7.70131 14.9708 7.70131 14.8459 7.75139L8.59919 10.2498L15.0406 12.8258L21.4819 10.2498L15.2352 7.75139ZM22.3674 11.0234L15.5639 13.7448V22.0367L22.3674 19.3153V11.0244V11.0234ZM14.5172 22.0377V13.7437L7.71369 11.0234V19.3163L14.5172 22.0377V22.0377ZM14.4575 6.77901C14.8318 6.62933 15.2493 6.62933 15.6236 6.77901L23.0855 9.76418C23.1825 9.80306 23.2656 9.8701 23.3242 9.95666C23.3828 10.0432 23.4141 10.1453 23.4141 10.2498V19.3163C23.414 19.5255 23.3512 19.7298 23.2338 19.9029C23.1165 20.0761 22.95 20.2101 22.7557 20.2877L15.2352 23.2959C15.1103 23.3459 14.9708 23.3459 14.8459 23.2959L7.32641 20.2877C7.13199 20.2102 6.96524 20.0763 6.8477 19.9031C6.73015 19.73 6.66721 19.5256 6.66699 19.3163V10.2498C6.66702 10.1453 6.69833 10.0432 6.75691 9.95666C6.81549 9.8701 6.89864 9.80306 6.99565 9.76418L14.4575 6.77901Z" fill="#051224"/>
</svg>
