<svg width="31" height="40" viewBox="0 0 31 40" fill="none" xmlns="http://www.w3.org/2000/svg">
<path d="M30.0778 15.0389C30.0778 21.8848 20.9135 34.0726 16.8953 39.1012C15.9319 40.2996 14.146 40.2996 13.1826 39.1012C9.09385 34.0726 0 21.8848 0 15.0389C0 6.73305 6.73305 0 15.0389 0C23.3417 0 30.0778 6.73305 30.0778 15.0389Z" fill="#FFF0EB"/>
<path d="M6 9.83267C6 9.34662 6.19122 8.88047 6.5316 8.53678C6.87198 8.19308 7.33363 8 7.815 8H18.705C19.1864 8 19.648 8.19308 19.9884 8.53678C20.3288 8.88047 20.52 9.34662 20.52 9.83267V11.6653H21.7542C22.0261 11.6656 22.2945 11.7275 22.5396 11.8466C22.7846 11.9657 23 12.1388 23.1699 12.3532L24.9619 14.6135C25.2197 14.9387 25.3602 15.3429 25.36 15.7595V18.3852C25.36 18.8712 25.1688 19.3374 24.8284 19.6811C24.488 20.0247 24.0264 20.2178 23.545 20.2178H22.94C22.94 20.8659 22.685 21.4874 22.2312 21.9457C21.7774 22.4039 21.1618 22.6614 20.52 22.6614C19.8782 22.6614 19.2626 22.4039 18.8088 21.9457C18.355 21.4874 18.1 20.8659 18.1 20.2178H12.05C12.0507 20.5435 11.9869 20.8661 11.8624 21.1666C11.7378 21.467 11.555 21.7393 11.3248 21.9674C11.0945 22.1955 10.8214 22.3748 10.5216 22.4948C10.2217 22.6148 9.90106 22.673 9.57857 22.6661C9.25607 22.6592 8.9382 22.5872 8.64364 22.4545C8.34909 22.3217 8.08379 22.1309 7.86334 21.8931C7.64289 21.6553 7.47174 21.3754 7.35996 21.0699C7.24818 20.7644 7.19801 20.4394 7.21242 20.114C6.85795 19.988 6.55094 19.754 6.33377 19.4444C6.1166 19.1347 5.99998 18.7646 6 18.3852V9.83267ZM7.56574 18.9423C7.78451 18.5806 8.09271 18.2827 8.46005 18.0777C8.82739 17.8727 9.24123 17.7678 9.66089 17.7732C10.0805 17.7787 10.4916 17.8942 10.8536 18.1086C11.2156 18.323 11.5162 18.6289 11.7257 18.996H18.4243C18.6371 18.625 18.9425 18.3166 19.31 18.1017V9.83267C19.31 9.67066 19.2463 9.51527 19.1328 9.40071C19.0193 9.28614 18.8655 9.22178 18.705 9.22178H7.815C7.65454 9.22178 7.50066 9.28614 7.3872 9.40071C7.27374 9.51527 7.21 9.67066 7.21 9.83267V18.3852C7.20991 18.5027 7.24342 18.6179 7.30652 18.7167C7.36962 18.8155 7.45963 18.8938 7.56574 18.9423ZM20.52 17.7743C20.9448 17.7743 21.3621 17.8872 21.73 18.1017C22.0978 18.3161 22.4033 18.6246 22.6157 18.996H23.545C23.7055 18.996 23.8593 18.9317 23.9728 18.8171C24.0863 18.7026 24.15 18.5472 24.15 18.3852V15.7583C24.1498 15.6197 24.1028 15.4853 24.0169 15.3771L22.2261 13.1168C22.1695 13.0453 22.0977 12.9875 22.016 12.9477C21.9344 12.908 21.8449 12.8873 21.7542 12.8871H20.52V17.7743ZM9.63 18.996C9.30909 18.996 9.00132 19.1248 8.7744 19.3539C8.54748 19.583 8.42 19.8938 8.42 20.2178C8.42 20.5419 8.54748 20.8526 8.7744 21.0818C9.00132 21.3109 9.30909 21.4396 9.63 21.4396C9.95091 21.4396 10.2587 21.3109 10.4856 21.0818C10.7125 20.8526 10.84 20.5419 10.84 20.2178C10.84 19.8938 10.7125 19.583 10.4856 19.3539C10.2587 19.1248 9.95091 18.996 9.63 18.996ZM20.52 18.996C20.1991 18.996 19.8913 19.1248 19.6644 19.3539C19.4375 19.583 19.31 19.8938 19.31 20.2178C19.31 20.5419 19.4375 20.8526 19.6644 21.0818C19.8913 21.3109 20.1991 21.4396 20.52 21.4396C20.8409 21.4396 21.1487 21.3109 21.3756 21.0818C21.6025 20.8526 21.73 20.5419 21.73 20.2178C21.73 19.8938 21.6025 19.583 21.3756 19.3539C21.1487 19.1248 20.8409 18.996 20.52 18.996Z" fill="#FF5A1F"/>
</svg>
